%TF.GenerationSoftware,KiCad,Pcbnew,9.0.6*%
%TF.CreationDate,2026-09-17T00:31:15+05:30*%
%TF.ProjectId,automation,6175746f-6d61-4746-996f-6e2e6b696361,v1*%
%TF.SameCoordinates,Original*%
%TF.FileFunction,Soldermask,Bot*%
%TF.FilePolarity,Negative*%
%FSLAX46Y46*%
G04 Gerber Fmt 4.6, Leading zero omitted, Abs format (unit mm)*
G04 Created by KiCad (PCBNEW 9.0.6) date 2026-09-17 00:31:15*
%MOMM*%
%LPD*%
G01*
G04 APERTURE LIST*
G04 Aperture macros list*
%AMRoundRect*
0 Rectangle with rounded corners*
0 $1 Rounding radius*
0 $2 $3 $4 $5 $6 $7 $8 $9 X,Y pos of 4 corners*
0 Add a 4 corners polygon primitive as box body*
4,1,4,$2,$3,$4,$5,$6,$7,$8,$9,$2,$3,0*
0 Add four circle primitives for the rounded corners*
1,1,$1+$1,$2,$3*
1,1,$1+$1,$4,$5*
1,1,$1+$1,$6,$7*
1,1,$1+$1,$8,$9*
0 Add four rect primitives between the rounded corners*
20,1,$1+$1,$2,$3,$4,$5,0*
20,1,$1+$1,$4,$5,$6,$7,0*
20,1,$1+$1,$6,$7,$8,$9,0*
20,1,$1+$1,$8,$9,$2,$3,0*%
G04 Aperture macros list end*
%ADD10RoundRect,0.250000X1.050000X-1.050000X1.050000X1.050000X-1.050000X1.050000X-1.050000X-1.050000X0*%
%ADD11C,2.600000*%
%ADD12RoundRect,0.250000X-1.050000X1.050000X-1.050000X-1.050000X1.050000X-1.050000X1.050000X1.050000X0*%
%ADD13RoundRect,0.250000X0.550000X-0.550000X0.550000X0.550000X-0.550000X0.550000X-0.550000X-0.550000X0*%
%ADD14C,1.600000*%
%ADD15C,0.650000*%
%ADD16O,1.000000X2.100000*%
%ADD17O,1.000000X1.800000*%
%ADD18RoundRect,0.250000X0.550000X0.550000X-0.550000X0.550000X-0.550000X-0.550000X0.550000X-0.550000X0*%
%ADD19C,1.500000*%
%ADD20R,1.700000X1.700000*%
%ADD21C,1.700000*%
G04 APERTURE END LIST*
D10*
%TO.C,J6*%
X140502500Y-164530000D03*
D11*
X140502500Y-159530000D03*
X140502500Y-154530000D03*
X140502500Y-149530000D03*
X140502500Y-144529999D03*
X140502500Y-139529999D03*
%TD*%
D12*
%TO.C,J3*%
X59570000Y-58100000D03*
D11*
X59570000Y-63100000D03*
X59570000Y-68100000D03*
X59570000Y-73100000D03*
X59570000Y-78100001D03*
X59570000Y-83100001D03*
X59570000Y-88099999D03*
X59570000Y-93100000D03*
X59570000Y-98100000D03*
X59570000Y-103100000D03*
X59570000Y-108100000D03*
X59570000Y-113100000D03*
X59570000Y-118100000D03*
X59570000Y-123100000D03*
X59570000Y-128100000D03*
X59570000Y-133100001D03*
%TD*%
D13*
%TO.C,U8*%
X124580000Y-119465000D03*
D14*
X127120000Y-119465000D03*
X129659999Y-119465000D03*
X132200000Y-119465000D03*
X132200000Y-111845000D03*
X129660000Y-111845000D03*
X127120000Y-111845000D03*
X124580000Y-111845000D03*
%TD*%
D15*
%TO.C,J4*%
X91110000Y-161045000D03*
X96890000Y-161045000D03*
D16*
X89680000Y-160545000D03*
D17*
X89680000Y-164725000D03*
D16*
X98320000Y-160545000D03*
D17*
X98320000Y-164725000D03*
%TD*%
D18*
%TO.C,U16*%
X74720000Y-88850000D03*
D14*
X74720000Y-86310000D03*
X67100000Y-86310000D03*
X67100000Y-88850000D03*
%TD*%
D18*
%TO.C,U32*%
X74800000Y-107400000D03*
D14*
X74800000Y-104860000D03*
X67180000Y-104860000D03*
X67180000Y-107400000D03*
%TD*%
D18*
%TO.C,U29*%
X74755000Y-137475000D03*
D14*
X74755000Y-134935000D03*
X67135000Y-134935000D03*
X67135000Y-137475000D03*
%TD*%
D18*
%TO.C,U14*%
X74720000Y-77350000D03*
D14*
X74720000Y-74810000D03*
X67100000Y-74810000D03*
X67100000Y-77350000D03*
%TD*%
D10*
%TO.C,J2*%
X140572500Y-128410000D03*
D11*
X140572500Y-123410000D03*
X140572500Y-118410000D03*
X140572500Y-113410000D03*
%TD*%
D19*
%TO.C,Y1*%
X103710000Y-125800000D03*
X107510000Y-125800000D03*
%TD*%
D20*
%TO.C,J8*%
X105860000Y-165390000D03*
D21*
X108400000Y-165390000D03*
X110939999Y-165390000D03*
X113480000Y-165390000D03*
%TD*%
D18*
%TO.C,U27*%
X74755000Y-125315000D03*
D14*
X74755000Y-122775000D03*
X67135000Y-122775000D03*
X67135000Y-125315000D03*
%TD*%
D18*
%TO.C,U10*%
X85285000Y-59935000D03*
D14*
X85285000Y-57395000D03*
X77665000Y-57395000D03*
X77665000Y-59935000D03*
%TD*%
D18*
%TO.C,U12*%
X74845000Y-65805000D03*
D14*
X74845000Y-63265000D03*
X67225000Y-63265000D03*
X67225000Y-65805000D03*
%TD*%
D12*
%TO.C,J9*%
X59547500Y-140330000D03*
D11*
X59547500Y-145330000D03*
%TD*%
D18*
%TO.C,U31*%
X74800000Y-101440000D03*
D14*
X74800000Y-98900000D03*
X67180000Y-98900000D03*
X67180000Y-101440000D03*
%TD*%
D13*
%TO.C,U6*%
X124540000Y-130265000D03*
D14*
X127080000Y-130265000D03*
X129619999Y-130265000D03*
X132160000Y-130265000D03*
X132160000Y-122645000D03*
X129620000Y-122645000D03*
X127080000Y-122645000D03*
X124540000Y-122645000D03*
%TD*%
D18*
%TO.C,U13*%
X74725000Y-71565000D03*
D14*
X74725000Y-69025000D03*
X67105000Y-69025000D03*
X67105000Y-71565000D03*
%TD*%
D18*
%TO.C,U17*%
X74725000Y-94585000D03*
D14*
X74725000Y-92045000D03*
X67105000Y-92045000D03*
X67105000Y-94585000D03*
%TD*%
D18*
%TO.C,U33*%
X74755000Y-113395000D03*
D14*
X74755000Y-110855000D03*
X67135000Y-110855000D03*
X67135000Y-113395000D03*
%TD*%
D18*
%TO.C,U11*%
X74905000Y-59995000D03*
D14*
X74905000Y-57455000D03*
X67285000Y-57455000D03*
X67285000Y-59995000D03*
%TD*%
D18*
%TO.C,U30*%
X85185000Y-137475000D03*
D14*
X85185000Y-134935000D03*
X77565000Y-134935000D03*
X77565000Y-137475000D03*
%TD*%
D10*
%TO.C,J5*%
X140572500Y-63600000D03*
D11*
X140572500Y-58600000D03*
%TD*%
D18*
%TO.C,U15*%
X74725000Y-83135000D03*
D14*
X74725000Y-80595000D03*
X67105000Y-80595000D03*
X67105000Y-83135000D03*
%TD*%
D18*
%TO.C,U26*%
X74755000Y-119475000D03*
D14*
X74755000Y-116935000D03*
X67135000Y-116935000D03*
X67135000Y-119475000D03*
%TD*%
D10*
%TO.C,J7*%
X140722500Y-106190000D03*
D11*
X140722500Y-101190000D03*
X140722500Y-96190000D03*
X140722500Y-91190000D03*
X140722500Y-86189999D03*
X140722500Y-81189999D03*
X140722500Y-76190001D03*
X140722500Y-71190000D03*
%TD*%
D13*
%TO.C,U9*%
X124640000Y-108810000D03*
D14*
X127180000Y-108810000D03*
X129719999Y-108810000D03*
X132260000Y-108810000D03*
X132260000Y-101190000D03*
X129720000Y-101190000D03*
X127180000Y-101190000D03*
X124640000Y-101190000D03*
%TD*%
D12*
%TO.C,J1*%
X59467500Y-159600000D03*
D11*
X59467500Y-164600000D03*
%TD*%
D18*
%TO.C,U28*%
X74755000Y-131395000D03*
D14*
X74755000Y-128855000D03*
X67135000Y-128855000D03*
X67135000Y-131395000D03*
%TD*%
D13*
%TO.C,U7*%
X124610000Y-141065000D03*
D14*
X127150000Y-141065000D03*
X129689999Y-141065000D03*
X132230000Y-141065000D03*
X132230000Y-133445000D03*
X129690000Y-133445000D03*
X127150000Y-133445000D03*
X124610000Y-133445000D03*
%TD*%
M02*
