%TF.GenerationSoftware,KiCad,Pcbnew,9.0.6*%
%TF.CreationDate,2026-09-17T00:31:15+05:30*%
%TF.ProjectId,automation,6175746f-6d61-4746-996f-6e2e6b696361,v1*%
%TF.SameCoordinates,Original*%
%TF.FileFunction,Legend,Bot*%
%TF.FilePolarity,Positive*%
%FSLAX46Y46*%
G04 Gerber Fmt 4.6, Leading zero omitted, Abs format (unit mm)*
G04 Created by KiCad (PCBNEW 9.0.6) date 2026-09-17 00:31:15*
%MOMM*%
%LPD*%
G01*
G04 APERTURE LIST*
%ADD10C,0.200000*%
G04 APERTURE END LIST*
D10*
G36*
X130781090Y-58357976D02*
G01*
X130805759Y-58382644D01*
X130835564Y-58442254D01*
X130835564Y-58633135D01*
X130805759Y-58692743D01*
X130781090Y-58717413D01*
X130721481Y-58747219D01*
X130578219Y-58747219D01*
X130518609Y-58717414D01*
X130493942Y-58692746D01*
X130464136Y-58633134D01*
X130464136Y-58442254D01*
X130493941Y-58382644D01*
X130518609Y-58357975D01*
X130578219Y-58328171D01*
X130721481Y-58328171D01*
X130781090Y-58357976D01*
G37*
G36*
X134099056Y-59058330D02*
G01*
X130153025Y-59058330D01*
X130153025Y-58418647D01*
X130264136Y-58418647D01*
X130264136Y-58656742D01*
X130266057Y-58676251D01*
X130267432Y-58679571D01*
X130267687Y-58683155D01*
X130274693Y-58701463D01*
X130322312Y-58796701D01*
X130327595Y-58805093D01*
X130328607Y-58807537D01*
X130330863Y-58810286D01*
X130332755Y-58813291D01*
X130334749Y-58815020D01*
X130341044Y-58822690D01*
X130388662Y-58870310D01*
X130396330Y-58876603D01*
X130398062Y-58878600D01*
X130401070Y-58880493D01*
X130403816Y-58882747D01*
X130406256Y-58883757D01*
X130414653Y-58889043D01*
X130509890Y-58936662D01*
X130528199Y-58943668D01*
X130531782Y-58943922D01*
X130535103Y-58945298D01*
X130554612Y-58947219D01*
X130745088Y-58947219D01*
X130764597Y-58945298D01*
X130767917Y-58943922D01*
X130771501Y-58943668D01*
X130789809Y-58936662D01*
X130885047Y-58889043D01*
X130893442Y-58883758D01*
X130895884Y-58882747D01*
X130898631Y-58880491D01*
X130901637Y-58878600D01*
X130903367Y-58876605D01*
X130911037Y-58870310D01*
X130958656Y-58822690D01*
X130964948Y-58815023D01*
X130966945Y-58813292D01*
X130968838Y-58810284D01*
X130971093Y-58807537D01*
X130972104Y-58805095D01*
X130977388Y-58796701D01*
X131025007Y-58701464D01*
X131032013Y-58683155D01*
X131032267Y-58679571D01*
X131033643Y-58676251D01*
X131035564Y-58656742D01*
X131035564Y-58275790D01*
X131035228Y-58272387D01*
X131035446Y-58270929D01*
X131034366Y-58263631D01*
X131033643Y-58256281D01*
X131033078Y-58254917D01*
X131032578Y-58251536D01*
X130984959Y-58061060D01*
X130980852Y-58049565D01*
X130980373Y-58047142D01*
X130979202Y-58044945D01*
X130978364Y-58042600D01*
X130976892Y-58040613D01*
X130975336Y-58037695D01*
X131216517Y-58037695D01*
X131216517Y-58132933D01*
X131217489Y-58142806D01*
X131217302Y-58145440D01*
X131218089Y-58148903D01*
X131218438Y-58152442D01*
X131219449Y-58154884D01*
X131221649Y-58164556D01*
X131269268Y-58307412D01*
X131277259Y-58325313D01*
X131279614Y-58328028D01*
X131280989Y-58331347D01*
X131293425Y-58346501D01*
X131694142Y-58747219D01*
X131316517Y-58747219D01*
X131297008Y-58749140D01*
X131260960Y-58764072D01*
X131233370Y-58791662D01*
X131218438Y-58827710D01*
X131218438Y-58866728D01*
X131233370Y-58902776D01*
X131260960Y-58930366D01*
X131297008Y-58945298D01*
X131316517Y-58947219D01*
X131935564Y-58947219D01*
X131955073Y-58945298D01*
X131991121Y-58930366D01*
X132018711Y-58902776D01*
X132033643Y-58866728D01*
X132033643Y-58841776D01*
X132169046Y-58841776D01*
X132174564Y-58880402D01*
X132194443Y-58913977D01*
X132225658Y-58937388D01*
X132263455Y-58947071D01*
X132302081Y-58941553D01*
X132335656Y-58921674D01*
X132348898Y-58907219D01*
X132708288Y-58428031D01*
X132740326Y-58460069D01*
X132740326Y-58847219D01*
X132742247Y-58866728D01*
X132757179Y-58902776D01*
X132784769Y-58930366D01*
X132820817Y-58945298D01*
X132859835Y-58945298D01*
X132895883Y-58930366D01*
X132923473Y-58902776D01*
X132938405Y-58866728D01*
X132940326Y-58847219D01*
X132940326Y-57922948D01*
X133170819Y-57922948D01*
X133170819Y-57961966D01*
X133185751Y-57998014D01*
X133213341Y-58025604D01*
X133249389Y-58040536D01*
X133288407Y-58040536D01*
X133324455Y-58025604D01*
X133339609Y-58013168D01*
X133370535Y-57982240D01*
X133475600Y-57947219D01*
X133538385Y-57947219D01*
X133643449Y-57982240D01*
X133710522Y-58049313D01*
X133745974Y-58120218D01*
X133787945Y-58288099D01*
X133787945Y-58406337D01*
X133745974Y-58574218D01*
X133710521Y-58645124D01*
X133643450Y-58712197D01*
X133538385Y-58747219D01*
X133475600Y-58747219D01*
X133370535Y-58712197D01*
X133339609Y-58681270D01*
X133324456Y-58668833D01*
X133288408Y-58653902D01*
X133249390Y-58653901D01*
X133213341Y-58668832D01*
X133185751Y-58696422D01*
X133170820Y-58732470D01*
X133170819Y-58771488D01*
X133185750Y-58807537D01*
X133198187Y-58822690D01*
X133245805Y-58870310D01*
X133260959Y-58882747D01*
X133264278Y-58884122D01*
X133266994Y-58886477D01*
X133284894Y-58894468D01*
X133427751Y-58942087D01*
X133437423Y-58944286D01*
X133439865Y-58945298D01*
X133443402Y-58945646D01*
X133446866Y-58946434D01*
X133449500Y-58946246D01*
X133459374Y-58947219D01*
X133554612Y-58947219D01*
X133564485Y-58946246D01*
X133567119Y-58946434D01*
X133570582Y-58945646D01*
X133574121Y-58945298D01*
X133576563Y-58944286D01*
X133586235Y-58942087D01*
X133729091Y-58894468D01*
X133746992Y-58886477D01*
X133749707Y-58884122D01*
X133753027Y-58882747D01*
X133768180Y-58870310D01*
X133863418Y-58775071D01*
X133869710Y-58767404D01*
X133871707Y-58765673D01*
X133873600Y-58762665D01*
X133875855Y-58759918D01*
X133876866Y-58757476D01*
X133882150Y-58749082D01*
X133929769Y-58653845D01*
X133930315Y-58652416D01*
X133930745Y-58651837D01*
X133933666Y-58643660D01*
X133936775Y-58635536D01*
X133936826Y-58634815D01*
X133937340Y-58633377D01*
X133984959Y-58442901D01*
X133985459Y-58439519D01*
X133986024Y-58438156D01*
X133986747Y-58430805D01*
X133987827Y-58423508D01*
X133987609Y-58422049D01*
X133987945Y-58418647D01*
X133987945Y-58275790D01*
X133987609Y-58272387D01*
X133987827Y-58270929D01*
X133986747Y-58263631D01*
X133986024Y-58256281D01*
X133985459Y-58254917D01*
X133984959Y-58251536D01*
X133937340Y-58061060D01*
X133936826Y-58059621D01*
X133936775Y-58058901D01*
X133933666Y-58050776D01*
X133930745Y-58042600D01*
X133930315Y-58042020D01*
X133929769Y-58040592D01*
X133882150Y-57945355D01*
X133876863Y-57936956D01*
X133875854Y-57934519D01*
X133873602Y-57931775D01*
X133871707Y-57928764D01*
X133869709Y-57927031D01*
X133863418Y-57919365D01*
X133768180Y-57824127D01*
X133753026Y-57811691D01*
X133749707Y-57810316D01*
X133746992Y-57807961D01*
X133729091Y-57799970D01*
X133586235Y-57752351D01*
X133576563Y-57750151D01*
X133574121Y-57749140D01*
X133570582Y-57748791D01*
X133567119Y-57748004D01*
X133564485Y-57748191D01*
X133554612Y-57747219D01*
X133459374Y-57747219D01*
X133449500Y-57748191D01*
X133446866Y-57748004D01*
X133443402Y-57748791D01*
X133439865Y-57749140D01*
X133437423Y-57750151D01*
X133427751Y-57752351D01*
X133284894Y-57799970D01*
X133266994Y-57807961D01*
X133264278Y-57810316D01*
X133260959Y-57811691D01*
X133245806Y-57824128D01*
X133198187Y-57871746D01*
X133185751Y-57886900D01*
X133170819Y-57922948D01*
X132940326Y-57922948D01*
X132940326Y-57847219D01*
X132938405Y-57827710D01*
X132923473Y-57791662D01*
X132895883Y-57764072D01*
X132859835Y-57749140D01*
X132820817Y-57749140D01*
X132784769Y-57764072D01*
X132757179Y-57791662D01*
X132742247Y-57827710D01*
X132740326Y-57847219D01*
X132740326Y-58177225D01*
X132339609Y-57776508D01*
X132324455Y-57764072D01*
X132288407Y-57749140D01*
X132249389Y-57749140D01*
X132213341Y-57764072D01*
X132185751Y-57791662D01*
X132170819Y-57827710D01*
X132170819Y-57866728D01*
X132185751Y-57902776D01*
X132198187Y-57917930D01*
X132565431Y-58285174D01*
X132188898Y-58787219D01*
X132178729Y-58803979D01*
X132169046Y-58841776D01*
X132033643Y-58841776D01*
X132033643Y-58827710D01*
X132018711Y-58791662D01*
X132006275Y-58776508D01*
X131451538Y-58221770D01*
X131416517Y-58116706D01*
X131416517Y-58061302D01*
X131446322Y-58001692D01*
X131470990Y-57977023D01*
X131530600Y-57947219D01*
X131721481Y-57947219D01*
X131781090Y-57977024D01*
X131817234Y-58013167D01*
X131832387Y-58025604D01*
X131868436Y-58040535D01*
X131907454Y-58040535D01*
X131943502Y-58025604D01*
X131971092Y-57998014D01*
X131986023Y-57961966D01*
X131986023Y-57922948D01*
X131971092Y-57886899D01*
X131958655Y-57871746D01*
X131911037Y-57824127D01*
X131903366Y-57817832D01*
X131901637Y-57815838D01*
X131898629Y-57813944D01*
X131895883Y-57811691D01*
X131893443Y-57810680D01*
X131885047Y-57805395D01*
X131789809Y-57757776D01*
X131771501Y-57750770D01*
X131767917Y-57750515D01*
X131764597Y-57749140D01*
X131745088Y-57747219D01*
X131506993Y-57747219D01*
X131487484Y-57749140D01*
X131484163Y-57750515D01*
X131480580Y-57750770D01*
X131462271Y-57757776D01*
X131367034Y-57805395D01*
X131358637Y-57810680D01*
X131356197Y-57811691D01*
X131353451Y-57813944D01*
X131350443Y-57815838D01*
X131348710Y-57817835D01*
X131341044Y-57824128D01*
X131293425Y-57871746D01*
X131287130Y-57879416D01*
X131285136Y-57881146D01*
X131283242Y-57884153D01*
X131280989Y-57886900D01*
X131279978Y-57889339D01*
X131274693Y-57897736D01*
X131227074Y-57992974D01*
X131220068Y-58011282D01*
X131219813Y-58014865D01*
X131218438Y-58018186D01*
X131216517Y-58037695D01*
X130975336Y-58037695D01*
X130971150Y-58029844D01*
X130875912Y-57886987D01*
X130875868Y-57886933D01*
X130875854Y-57886899D01*
X130869709Y-57879413D01*
X130863492Y-57871820D01*
X130863460Y-57871798D01*
X130863417Y-57871746D01*
X130815799Y-57824127D01*
X130808128Y-57817832D01*
X130806399Y-57815838D01*
X130803391Y-57813944D01*
X130800645Y-57811691D01*
X130798205Y-57810680D01*
X130789809Y-57805395D01*
X130694571Y-57757776D01*
X130676263Y-57750770D01*
X130672679Y-57750515D01*
X130669359Y-57749140D01*
X130649850Y-57747219D01*
X130459374Y-57747219D01*
X130439865Y-57749140D01*
X130403817Y-57764072D01*
X130376227Y-57791662D01*
X130361295Y-57827710D01*
X130361295Y-57866728D01*
X130376227Y-57902776D01*
X130403817Y-57930366D01*
X130439865Y-57945298D01*
X130459374Y-57947219D01*
X130626243Y-57947219D01*
X130685852Y-57977024D01*
X130714994Y-58006165D01*
X130795132Y-58126372D01*
X130799422Y-58143534D01*
X130789809Y-58138728D01*
X130771501Y-58131722D01*
X130767917Y-58131467D01*
X130764597Y-58130092D01*
X130745088Y-58128171D01*
X130554612Y-58128171D01*
X130535103Y-58130092D01*
X130531782Y-58131467D01*
X130528199Y-58131722D01*
X130509890Y-58138728D01*
X130414653Y-58186347D01*
X130406256Y-58191632D01*
X130403816Y-58192643D01*
X130401070Y-58194896D01*
X130398062Y-58196790D01*
X130396329Y-58198787D01*
X130388663Y-58205080D01*
X130341044Y-58252698D01*
X130334749Y-58260368D01*
X130332755Y-58262098D01*
X130330861Y-58265105D01*
X130328608Y-58267852D01*
X130327597Y-58270291D01*
X130322312Y-58278688D01*
X130274693Y-58373926D01*
X130267687Y-58392234D01*
X130267432Y-58395817D01*
X130266057Y-58399138D01*
X130264136Y-58418647D01*
X130153025Y-58418647D01*
X130153025Y-57636108D01*
X134099056Y-57636108D01*
X134099056Y-59058330D01*
G37*
M02*
