%TF.GenerationSoftware,KiCad,Pcbnew,9.0.6*%
%TF.CreationDate,2026-09-17T00:31:15+05:30*%
%TF.ProjectId,automation,6175746f-6d61-4746-996f-6e2e6b696361,v1*%
%TF.SameCoordinates,Original*%
%TF.FileFunction,Paste,Top*%
%TF.FilePolarity,Positive*%
%FSLAX46Y46*%
G04 Gerber Fmt 4.6, Leading zero omitted, Abs format (unit mm)*
G04 Created by KiCad (PCBNEW 9.0.6) date 2026-09-17 00:31:15*
%MOMM*%
%LPD*%
G01*
G04 APERTURE LIST*
G04 Aperture macros list*
%AMRoundRect*
0 Rectangle with rounded corners*
0 $1 Rounding radius*
0 $2 $3 $4 $5 $6 $7 $8 $9 X,Y pos of 4 corners*
0 Add a 4 corners polygon primitive as box body*
4,1,4,$2,$3,$4,$5,$6,$7,$8,$9,$2,$3,0*
0 Add four circle primitives for the rounded corners*
1,1,$1+$1,$2,$3*
1,1,$1+$1,$4,$5*
1,1,$1+$1,$6,$7*
1,1,$1+$1,$8,$9*
0 Add four rect primitives between the rounded corners*
20,1,$1+$1,$2,$3,$4,$5,0*
20,1,$1+$1,$4,$5,$6,$7,0*
20,1,$1+$1,$6,$7,$8,$9,0*
20,1,$1+$1,$8,$9,$2,$3,0*%
G04 Aperture macros list end*
%ADD10RoundRect,0.250000X-0.475000X0.337500X-0.475000X-0.337500X0.475000X-0.337500X0.475000X0.337500X0*%
%ADD11RoundRect,0.250000X0.350000X0.450000X-0.350000X0.450000X-0.350000X-0.450000X0.350000X-0.450000X0*%
%ADD12RoundRect,0.150000X-0.150000X-0.425000X0.150000X-0.425000X0.150000X0.425000X-0.150000X0.425000X0*%
%ADD13RoundRect,0.075000X-0.075000X-0.500000X0.075000X-0.500000X0.075000X0.500000X-0.075000X0.500000X0*%
%ADD14O,1.000000X2.100000*%
%ADD15O,1.000000X1.800000*%
%ADD16RoundRect,0.250000X-0.350000X-0.450000X0.350000X-0.450000X0.350000X0.450000X-0.350000X0.450000X0*%
%ADD17RoundRect,0.200000X0.200000X0.800000X-0.200000X0.800000X-0.200000X-0.800000X0.200000X-0.800000X0*%
%ADD18RoundRect,0.250000X-0.097227X0.574524X-0.574524X0.097227X0.097227X-0.574524X0.574524X-0.097227X0*%
%ADD19RoundRect,0.250000X0.337500X0.475000X-0.337500X0.475000X-0.337500X-0.475000X0.337500X-0.475000X0*%
%ADD20RoundRect,0.250000X0.574524X0.097227X0.097227X0.574524X-0.574524X-0.097227X-0.097227X-0.574524X0*%
%ADD21RoundRect,0.250000X0.450000X-0.350000X0.450000X0.350000X-0.450000X0.350000X-0.450000X-0.350000X0*%
%ADD22RoundRect,0.075000X-0.565685X0.459619X0.459619X-0.565685X0.565685X-0.459619X-0.459619X0.565685X0*%
%ADD23RoundRect,0.075000X-0.565685X-0.459619X-0.459619X-0.565685X0.565685X0.459619X0.459619X0.565685X0*%
%ADD24RoundRect,0.250000X0.097227X-0.574524X0.574524X-0.097227X-0.097227X0.574524X-0.574524X0.097227X0*%
%ADD25RoundRect,0.150000X-0.150000X0.825000X-0.150000X-0.825000X0.150000X-0.825000X0.150000X0.825000X0*%
%ADD26RoundRect,0.250000X-0.450000X0.350000X-0.450000X-0.350000X0.450000X-0.350000X0.450000X0.350000X0*%
%ADD27RoundRect,0.250000X-0.337500X-0.475000X0.337500X-0.475000X0.337500X0.475000X-0.337500X0.475000X0*%
%ADD28RoundRect,0.150000X-0.825000X-0.150000X0.825000X-0.150000X0.825000X0.150000X-0.825000X0.150000X0*%
%ADD29RoundRect,0.250000X0.450000X-0.325000X0.450000X0.325000X-0.450000X0.325000X-0.450000X-0.325000X0*%
%ADD30RoundRect,0.250000X-0.574524X-0.097227X-0.097227X-0.574524X0.574524X0.097227X0.097227X0.574524X0*%
%ADD31RoundRect,0.250000X0.325000X0.450000X-0.325000X0.450000X-0.325000X-0.450000X0.325000X-0.450000X0*%
%ADD32RoundRect,0.150000X-0.587500X-0.150000X0.587500X-0.150000X0.587500X0.150000X-0.587500X0.150000X0*%
%ADD33RoundRect,0.150000X0.150000X-0.825000X0.150000X0.825000X-0.150000X0.825000X-0.150000X-0.825000X0*%
%ADD34RoundRect,0.375000X-0.625000X-0.375000X0.625000X-0.375000X0.625000X0.375000X-0.625000X0.375000X0*%
%ADD35RoundRect,0.500000X-0.500000X-1.400000X0.500000X-1.400000X0.500000X1.400000X-0.500000X1.400000X0*%
%ADD36RoundRect,0.250000X-0.650000X1.000000X-0.650000X-1.000000X0.650000X-1.000000X0.650000X1.000000X0*%
%ADD37RoundRect,0.250001X0.624999X-0.462499X0.624999X0.462499X-0.624999X0.462499X-0.624999X-0.462499X0*%
%ADD38R,2.500000X1.000000*%
%ADD39R,1.000000X1.800000*%
%ADD40RoundRect,0.250000X-2.600000X0.600000X-2.600000X-0.600000X2.600000X-0.600000X2.600000X0.600000X0*%
%ADD41RoundRect,0.162500X-0.650000X-0.162500X0.650000X-0.162500X0.650000X0.162500X-0.650000X0.162500X0*%
G04 APERTURE END LIST*
D10*
%TO.C,C9*%
X70500000Y-163850000D03*
X70500000Y-165925000D03*
%TD*%
D11*
%TO.C,R52*%
X131570000Y-93050000D03*
X129570000Y-93050000D03*
%TD*%
%TO.C,R51*%
X127780000Y-89860000D03*
X125780000Y-89860000D03*
%TD*%
D10*
%TO.C,C10*%
X72740000Y-163825000D03*
X72740000Y-165900000D03*
%TD*%
D11*
%TO.C,R11*%
X104420000Y-84030000D03*
X102420000Y-84030000D03*
%TD*%
D12*
%TO.C,J4*%
X90800000Y-159970000D03*
X91600000Y-159970000D03*
D13*
X92750000Y-159970001D03*
X93750000Y-159970000D03*
X94250000Y-159970000D03*
X95250000Y-159970001D03*
D12*
X96400000Y-159970000D03*
X97200000Y-159970000D03*
X97200000Y-159970000D03*
X96400000Y-159970000D03*
D13*
X95750000Y-159970000D03*
X94750000Y-159970000D03*
X93250000Y-159970000D03*
X92250000Y-159970000D03*
D12*
X91600000Y-159970000D03*
X90800000Y-159970000D03*
D14*
X89680000Y-160545000D03*
D15*
X89680000Y-164725000D03*
D14*
X98320000Y-160545000D03*
D15*
X98320000Y-164725000D03*
%TD*%
D11*
%TO.C,R6*%
X122110000Y-160940000D03*
X120110000Y-160940000D03*
%TD*%
D16*
%TO.C,R20*%
X77710000Y-73060000D03*
X79710000Y-73060000D03*
%TD*%
D17*
%TO.C,SW2*%
X122910000Y-164820000D03*
X118710000Y-164820000D03*
%TD*%
D18*
%TO.C,C14*%
X99260000Y-121020000D03*
X97792754Y-122487246D03*
%TD*%
D19*
%TO.C,C23*%
X104335000Y-130120000D03*
X102260000Y-130120000D03*
%TD*%
D16*
%TO.C,R30*%
X77900000Y-125900000D03*
X79900000Y-125900000D03*
%TD*%
D20*
%TO.C,C22*%
X91210023Y-103970023D03*
X89742777Y-102502777D03*
%TD*%
D21*
%TO.C,R12*%
X103270000Y-160240000D03*
X103270000Y-158240000D03*
%TD*%
D22*
%TO.C,U5*%
X100560796Y-98559615D03*
X100207243Y-98913168D03*
X99853689Y-99266722D03*
X99500136Y-99620275D03*
X99146583Y-99973828D03*
X98793029Y-100327382D03*
X98439476Y-100680935D03*
X98085922Y-101034489D03*
X97732369Y-101388042D03*
X97378816Y-101741595D03*
X97025262Y-102095149D03*
X96671709Y-102448702D03*
X96318155Y-102802255D03*
X95964602Y-103155809D03*
X95611049Y-103509362D03*
X95257495Y-103862916D03*
X94903942Y-104216469D03*
X94550389Y-104570022D03*
X94196835Y-104923576D03*
X93843282Y-105277129D03*
X93489728Y-105630683D03*
X93136175Y-105984236D03*
X92782622Y-106337789D03*
X92429068Y-106691343D03*
X92075515Y-107044896D03*
D23*
X92075515Y-109413704D03*
X92429068Y-109767257D03*
X92782622Y-110120811D03*
X93136175Y-110474364D03*
X93489728Y-110827917D03*
X93843282Y-111181471D03*
X94196835Y-111535024D03*
X94550389Y-111888578D03*
X94903942Y-112242131D03*
X95257495Y-112595684D03*
X95611049Y-112949238D03*
X95964602Y-113302791D03*
X96318155Y-113656345D03*
X96671709Y-114009898D03*
X97025262Y-114363451D03*
X97378816Y-114717005D03*
X97732369Y-115070558D03*
X98085922Y-115424111D03*
X98439476Y-115777665D03*
X98793029Y-116131218D03*
X99146583Y-116484772D03*
X99500136Y-116838325D03*
X99853689Y-117191878D03*
X100207243Y-117545432D03*
X100560796Y-117898985D03*
D22*
X102929604Y-117898985D03*
X103283157Y-117545432D03*
X103636711Y-117191878D03*
X103990264Y-116838325D03*
X104343817Y-116484772D03*
X104697371Y-116131218D03*
X105050924Y-115777665D03*
X105404478Y-115424111D03*
X105758031Y-115070558D03*
X106111584Y-114717005D03*
X106465138Y-114363451D03*
X106818691Y-114009898D03*
X107172245Y-113656345D03*
X107525798Y-113302791D03*
X107879351Y-112949238D03*
X108232905Y-112595684D03*
X108586458Y-112242131D03*
X108940011Y-111888578D03*
X109293565Y-111535024D03*
X109647118Y-111181471D03*
X110000672Y-110827917D03*
X110354225Y-110474364D03*
X110707778Y-110120811D03*
X111061332Y-109767257D03*
X111414885Y-109413704D03*
D23*
X111414885Y-107044896D03*
X111061332Y-106691343D03*
X110707778Y-106337789D03*
X110354225Y-105984236D03*
X110000672Y-105630683D03*
X109647118Y-105277129D03*
X109293565Y-104923576D03*
X108940011Y-104570022D03*
X108586458Y-104216469D03*
X108232905Y-103862916D03*
X107879351Y-103509362D03*
X107525798Y-103155809D03*
X107172245Y-102802255D03*
X106818691Y-102448702D03*
X106465138Y-102095149D03*
X106111584Y-101741595D03*
X105758031Y-101388042D03*
X105404478Y-101034489D03*
X105050924Y-100680935D03*
X104697371Y-100327382D03*
X104343817Y-99973828D03*
X103990264Y-99620275D03*
X103636711Y-99266722D03*
X103283157Y-98913168D03*
X102929604Y-98559615D03*
%TD*%
D24*
%TO.C,C13*%
X105139977Y-96440023D03*
X106607223Y-94972777D03*
%TD*%
D20*
%TO.C,C16*%
X94180023Y-100980023D03*
X92712777Y-99512777D03*
%TD*%
D19*
%TO.C,C2*%
X114210000Y-152410000D03*
X112135000Y-152410000D03*
%TD*%
D16*
%TO.C,R17*%
X83760000Y-63510000D03*
X85760000Y-63510000D03*
%TD*%
D20*
%TO.C,C18*%
X89760023Y-105460023D03*
X88292777Y-103992777D03*
%TD*%
D11*
%TO.C,R54*%
X131530000Y-96280000D03*
X129530000Y-96280000D03*
%TD*%
D16*
%TO.C,R31*%
X77900000Y-130945000D03*
X79900000Y-130945000D03*
%TD*%
D21*
%TO.C,R33*%
X124240000Y-64160000D03*
X124240000Y-62160000D03*
%TD*%
D25*
%TO.C,U20*%
X77417500Y-145875000D03*
X76147500Y-145875000D03*
X74877500Y-145875000D03*
X73607500Y-145875000D03*
X73607500Y-150825000D03*
X74877500Y-150825000D03*
X76147500Y-150825000D03*
X77417500Y-150825000D03*
%TD*%
D26*
%TO.C,R60*%
X70040000Y-150650000D03*
X70040000Y-152650000D03*
%TD*%
D27*
%TO.C,C24*%
X107150000Y-130230000D03*
X109225000Y-130230000D03*
%TD*%
D16*
%TO.C,R59*%
X76170000Y-142380000D03*
X78170000Y-142380000D03*
%TD*%
%TO.C,R22*%
X77710000Y-81977600D03*
X79710000Y-81977600D03*
%TD*%
D28*
%TO.C,U18*%
X127985000Y-62692500D03*
X127985000Y-63962500D03*
X127985000Y-65232500D03*
X127985000Y-66502500D03*
X132935000Y-66502500D03*
X132935000Y-65232500D03*
X132935000Y-63962500D03*
X132935000Y-62692500D03*
%TD*%
D16*
%TO.C,R26*%
X77900000Y-105720000D03*
X79900000Y-105720000D03*
%TD*%
D11*
%TO.C,R41*%
X127870000Y-80390000D03*
X125870000Y-80390000D03*
%TD*%
D29*
%TO.C,D8*%
X118880000Y-58864999D03*
X118880000Y-56815001D03*
%TD*%
D16*
%TO.C,R28*%
X77900000Y-115810000D03*
X79900000Y-115810000D03*
%TD*%
D30*
%TO.C,C20*%
X112092777Y-112882777D03*
X113560023Y-114350023D03*
%TD*%
D21*
%TO.C,R36*%
X116180000Y-64050000D03*
X116180000Y-62050000D03*
%TD*%
D11*
%TO.C,R55*%
X127570000Y-96290000D03*
X125570000Y-96290000D03*
%TD*%
D16*
%TO.C,R24*%
X77710000Y-90895300D03*
X79710000Y-90895300D03*
%TD*%
D20*
%TO.C,C21*%
X92680023Y-102510023D03*
X91212777Y-101042777D03*
%TD*%
D11*
%TO.C,R15*%
X120170000Y-117113300D03*
X118170000Y-117113300D03*
%TD*%
D31*
%TO.C,D4*%
X108489999Y-83980000D03*
X106440001Y-83980000D03*
%TD*%
D32*
%TO.C,D1*%
X94740000Y-131330000D03*
X94740000Y-133230000D03*
X96615000Y-132280000D03*
%TD*%
D16*
%TO.C,R39*%
X129940000Y-58130000D03*
X131940000Y-58130000D03*
%TD*%
D29*
%TO.C,D7*%
X121570000Y-58904999D03*
X121570000Y-56855001D03*
%TD*%
D11*
%TO.C,R45*%
X118990000Y-84370000D03*
X116990000Y-84370000D03*
%TD*%
%TO.C,R57*%
X119410000Y-73610000D03*
X117410000Y-73610000D03*
%TD*%
D33*
%TO.C,U3*%
X71480000Y-160590000D03*
X72750000Y-160590000D03*
X74020000Y-160590000D03*
X75290000Y-160590000D03*
X75290000Y-155640000D03*
X74020000Y-155640000D03*
X72750000Y-155640000D03*
X71480000Y-155640000D03*
%TD*%
D34*
%TO.C,U2*%
X117500000Y-145880000D03*
X117500000Y-148180000D03*
D35*
X123800000Y-148180000D03*
D34*
X117500000Y-150480000D03*
%TD*%
D27*
%TO.C,C6*%
X105330000Y-142690000D03*
X107405000Y-142690000D03*
%TD*%
D29*
%TO.C,D6*%
X124180000Y-58879999D03*
X124180000Y-56830001D03*
%TD*%
D19*
%TO.C,C1*%
X92170000Y-147000000D03*
X90095000Y-147000000D03*
%TD*%
D16*
%TO.C,R27*%
X77900000Y-110765000D03*
X79900000Y-110765000D03*
%TD*%
D21*
%TO.C,R37*%
X95950000Y-157650000D03*
X95950000Y-155650000D03*
%TD*%
D36*
%TO.C,D10*%
X88980000Y-151869999D03*
X88980000Y-155870001D03*
%TD*%
D18*
%TO.C,C15*%
X90280023Y-112599977D03*
X88812777Y-114067223D03*
%TD*%
D11*
%TO.C,R48*%
X122970000Y-90510000D03*
X120970000Y-90510000D03*
%TD*%
%TO.C,R16*%
X120170000Y-106880000D03*
X118170000Y-106880000D03*
%TD*%
%TO.C,R14*%
X120150000Y-127330000D03*
X118150000Y-127330000D03*
%TD*%
D26*
%TO.C,R4*%
X114410000Y-74130000D03*
X114410000Y-76130000D03*
%TD*%
D16*
%TO.C,R21*%
X77710000Y-77518800D03*
X79710000Y-77518800D03*
%TD*%
D21*
%TO.C,R34*%
X121540000Y-64100000D03*
X121540000Y-62100000D03*
%TD*%
D27*
%TO.C,C7*%
X127285000Y-150150000D03*
X129360000Y-150150000D03*
%TD*%
D11*
%TO.C,R50*%
X131670000Y-89860000D03*
X129670000Y-89860000D03*
%TD*%
%TO.C,R47*%
X118860000Y-87490000D03*
X116860000Y-87490000D03*
%TD*%
%TO.C,R61*%
X74210000Y-142450000D03*
X72210000Y-142450000D03*
%TD*%
D30*
%TO.C,C12*%
X113662777Y-111262777D03*
X115130023Y-112730023D03*
%TD*%
D29*
%TO.C,D3*%
X106520000Y-156059999D03*
X106520000Y-154010001D03*
%TD*%
D11*
%TO.C,R40*%
X131750000Y-80390000D03*
X129750000Y-80390000D03*
%TD*%
D18*
%TO.C,C19*%
X97780000Y-119580000D03*
X96312754Y-121047246D03*
%TD*%
D34*
%TO.C,U1*%
X96320000Y-140580000D03*
X96320000Y-142880000D03*
D35*
X102620000Y-142880000D03*
D34*
X96320000Y-145180000D03*
%TD*%
D16*
%TO.C,R19*%
X77710000Y-68601200D03*
X79710000Y-68601200D03*
%TD*%
D27*
%TO.C,C5*%
X105275000Y-140610000D03*
X107350000Y-140610000D03*
%TD*%
D11*
%TO.C,R2*%
X92150000Y-68310000D03*
X90150000Y-68310000D03*
%TD*%
D16*
%TO.C,R18*%
X77710000Y-64142400D03*
X79710000Y-64142400D03*
%TD*%
D11*
%TO.C,R32*%
X85380000Y-131490000D03*
X83380000Y-131490000D03*
%TD*%
%TO.C,R5*%
X129160000Y-160930000D03*
X127160000Y-160930000D03*
%TD*%
D37*
%TO.C,D2*%
X78050000Y-164860000D03*
X78050000Y-161885000D03*
%TD*%
D27*
%TO.C,C11*%
X82060000Y-161840000D03*
X84135000Y-161840000D03*
%TD*%
D21*
%TO.C,R3*%
X114440000Y-71880000D03*
X114440000Y-69880000D03*
%TD*%
%TO.C,R10*%
X106570000Y-160370000D03*
X106570000Y-158370000D03*
%TD*%
D16*
%TO.C,R23*%
X77710000Y-86436500D03*
X79710000Y-86436500D03*
%TD*%
D11*
%TO.C,R44*%
X122940000Y-84370000D03*
X120940000Y-84370000D03*
%TD*%
D27*
%TO.C,C8*%
X127285000Y-152340000D03*
X129360000Y-152340000D03*
%TD*%
D21*
%TO.C,R38*%
X92660000Y-157490000D03*
X92660000Y-155490000D03*
%TD*%
D29*
%TO.C,D5*%
X103290000Y-155979999D03*
X103290000Y-153930001D03*
%TD*%
D19*
%TO.C,C3*%
X92197400Y-144572100D03*
X90122400Y-144572100D03*
%TD*%
D11*
%TO.C,R43*%
X127860000Y-82850000D03*
X125860000Y-82850000D03*
%TD*%
%TO.C,R46*%
X122880000Y-87500000D03*
X120880000Y-87500000D03*
%TD*%
D16*
%TO.C,R29*%
X77900000Y-120855000D03*
X79900000Y-120855000D03*
%TD*%
%TO.C,R9*%
X90347500Y-131310000D03*
X92347500Y-131310000D03*
%TD*%
D29*
%TO.C,D9*%
X116130000Y-58859999D03*
X116130000Y-56810001D03*
%TD*%
D16*
%TO.C,R7*%
X104785000Y-132720000D03*
X106785000Y-132720000D03*
%TD*%
D11*
%TO.C,R42*%
X131710000Y-82850000D03*
X129710000Y-82850000D03*
%TD*%
%TO.C,R1*%
X92200000Y-64190000D03*
X90200000Y-64190000D03*
%TD*%
D16*
%TO.C,R56*%
X117390000Y-71380000D03*
X119390000Y-71380000D03*
%TD*%
D11*
%TO.C,R8*%
X92397500Y-133850000D03*
X90397500Y-133850000D03*
%TD*%
%TO.C,R49*%
X118990000Y-90530000D03*
X116990000Y-90530000D03*
%TD*%
D16*
%TO.C,R25*%
X77900000Y-100675000D03*
X79900000Y-100675000D03*
%TD*%
D38*
%TO.C,U4*%
X95230000Y-64140000D03*
X95230000Y-66140000D03*
X95230000Y-68140000D03*
X95230000Y-70140000D03*
X95230000Y-72140000D03*
X95230000Y-74140000D03*
X95230000Y-76140000D03*
X95230000Y-78140000D03*
D39*
X97830000Y-79640000D03*
X99830000Y-79640000D03*
X101830000Y-79640000D03*
X103830000Y-79640000D03*
X105830000Y-79640000D03*
X107830000Y-79640000D03*
D38*
X110430000Y-78140000D03*
X110430000Y-76140000D03*
X110430000Y-74140000D03*
X110430000Y-72140000D03*
X110430000Y-70140000D03*
X110430000Y-68140000D03*
X110430000Y-66140000D03*
X110430000Y-64140000D03*
%TD*%
D21*
%TO.C,R58*%
X132770000Y-73140000D03*
X132770000Y-71140000D03*
%TD*%
D40*
%TO.C,L1*%
X81350000Y-154520000D03*
X81350000Y-159020000D03*
%TD*%
D17*
%TO.C,SW1*%
X129960000Y-164810000D03*
X125760000Y-164810000D03*
%TD*%
D11*
%TO.C,R53*%
X127680000Y-93070000D03*
X125680000Y-93070000D03*
%TD*%
D20*
%TO.C,C17*%
X95660023Y-99510023D03*
X94192777Y-98042777D03*
%TD*%
D21*
%TO.C,R35*%
X118960000Y-64080000D03*
X118960000Y-62080000D03*
%TD*%
D41*
%TO.C,U19*%
X122352500Y-71227500D03*
X122352500Y-72497500D03*
X122352500Y-73767500D03*
X122352500Y-75037500D03*
X129527500Y-75037500D03*
X129527500Y-73767500D03*
X129527500Y-72497500D03*
X129527500Y-71227500D03*
%TD*%
D19*
%TO.C,C4*%
X114140000Y-150220000D03*
X112065000Y-150220000D03*
%TD*%
D11*
%TO.C,R13*%
X120220000Y-137630000D03*
X118220000Y-137630000D03*
%TD*%
D21*
%TO.C,R62*%
X70110000Y-148640000D03*
X70110000Y-146640000D03*
%TD*%
M02*
