M48
; DRILL file {KiCad 9.0.6} date 2026-09-17T00:31:18+0530
; FORMAT={-:-/ absolute / metric / decimal}
; #@! TF.CreationDate,2026-09-17T00:31:18+05:30
; #@! TF.GenerationSoftware,Kicad,Pcbnew,9.0.6
; #@! TF.FileFunction,Plated,1,2,PTH
FMAT,2
METRIC
; #@! TA.AperFunction,Plated,PTH,ViaDrill
T1C0.300
; #@! TA.AperFunction,Plated,PTH,ComponentDrill
T2C0.600
; #@! TA.AperFunction,Plated,PTH,ComponentDrill
T3C0.800
; #@! TA.AperFunction,Plated,PTH,ComponentDrill
T4C1.000
; #@! TA.AperFunction,Plated,PTH,ComponentDrill
T5C1.300
%
G90
G05
T1
X56.98Y-101.21
X57.64Y-70.7
X60.93Y-152.25
X71.31Y-77.0
X71.38Y-58.77
X71.53Y-101.38
X71.53Y-124.27
X73.59Y-150.62
X74.89Y-145.8
X80.84Y-134.91
X80.87Y-136.38
X82.12Y-134.91
X82.19Y-136.45
X83.54Y-165.15
X85.03Y-128.47
X86.28Y-147.3
X86.66Y-127.17
X86.82Y-69.33
X87.165Y-127.79
X88.13Y-93.78
X88.293Y-103.993
X88.813Y-114.067
X89.43Y-110.29
X89.72Y-81.01
X89.743Y-102.503
X89.799Y-109.421
X90.06Y-123.59
X90.23Y-111.18
X90.397Y-133.85
X90.74Y-124.15
X90.8Y-159.97
X91.213Y-101.043
X91.337Y-105.865
X92.13Y-112.46
X92.76Y-113.36
X92.99Y-122.35
X93.49Y-126.31
X93.741Y-158.895
X94.761Y-158.947
X95.95Y-109.87
X96.12Y-128.24
X96.313Y-121.047
X97.2Y-159.97
X97.24Y-110.0
X97.455Y-104.248
X97.59Y-108.26
X97.793Y-122.487
X97.82Y-88.86
X98.38Y-104.52
X98.57Y-111.4
X98.62Y-110.21
X98.95Y-71.49
X98.95Y-72.29
X98.95Y-73.09
X99.24Y-105.65
X99.43Y-102.28
X99.65Y-106.88
X99.75Y-71.49
X99.75Y-72.29
X99.75Y-73.09
X100.04Y-112.78
X100.2Y-107.72
X100.23Y-150.32
X100.55Y-71.49
X100.55Y-72.29
X100.55Y-73.09
X100.6Y-114.85
X101.502Y-110.568
X101.52Y-115.11
X101.86Y-142.13
X101.86Y-142.93
X101.86Y-143.73
X102.02Y-162.94
X102.17Y-111.98
X102.18Y-100.29
X102.66Y-142.13
X102.66Y-142.93
X102.66Y-143.73
X102.74Y-97.976
X102.758Y-109.232
X103.25Y-101.82
X103.46Y-142.13
X103.46Y-142.93
X103.46Y-143.73
X104.65Y-106.79
X104.9Y-96.16
X105.05Y-111.36
X105.39Y-107.45
X105.955Y-111.69
X106.093Y-110.165
X106.45Y-86.25
X106.58Y-110.8
X107.01Y-107.29
X107.29Y-64.44
X107.58Y-66.32
X107.59Y-86.355
X107.6Y-109.34
X107.868Y-99.808
X108.18Y-105.989
X108.62Y-99.05
X108.892Y-107.013
X109.42Y-99.44
X109.93Y-98.34
X110.33Y-72.14
X110.43Y-76.14
X110.43Y-78.14
X112.246Y-110.775
X112.75Y-133.71
X113.46Y-132.99
X113.56Y-114.35
X114.085Y-131.96
X114.16Y-144.52
X114.41Y-76.13
X114.623Y-77.773
X114.68Y-78.6
X114.71Y-131.08
X114.86Y-89.89
X114.96Y-86.47
X115.13Y-112.73
X116.18Y-64.05
X116.83Y-141.82
X116.84Y-98.47
X116.86Y-87.49
X117.39Y-71.38
X118.17Y-106.88
X118.17Y-117.113
X118.22Y-137.63
X118.31Y-81.51
X118.35Y-97.34
X118.46Y-82.71
X118.5Y-76.38
X118.96Y-64.08
X119.39Y-71.38
X119.73Y-96.49
X120.34Y-95.17
X121.01Y-76.22
X121.54Y-64.1
X121.6Y-155.915
X122.11Y-160.94
X122.35Y-156.56
X122.352Y-72.498
X123.025Y-147.405
X123.025Y-148.205
X123.025Y-149.005
X123.21Y-78.53
X123.825Y-147.405
X123.825Y-148.205
X123.825Y-149.005
X124.14Y-127.27
X124.24Y-64.16
X124.36Y-154.01
X124.625Y-147.405
X124.625Y-148.205
X124.625Y-149.005
X124.725Y-78.875
X124.98Y-154.74
X125.86Y-82.85
X125.87Y-80.39
X126.21Y-125.77
X126.42Y-63.01
X126.58Y-66.75
X127.16Y-160.93
X129.528Y-71.227
X129.528Y-73.767
X129.528Y-75.037
X132.24Y-137.09
X133.6Y-163.83
X133.74Y-152.61
X143.04Y-67.29
X143.46Y-134.8
X143.57Y-88.59
X143.57Y-114.77
T3
X67.1Y-74.81
X67.1Y-77.35
X67.1Y-86.31
X67.1Y-88.85
X67.105Y-69.025
X67.105Y-71.565
X67.105Y-80.595
X67.105Y-83.135
X67.105Y-92.045
X67.105Y-94.585
X67.135Y-110.855
X67.135Y-113.395
X67.135Y-116.935
X67.135Y-119.475
X67.135Y-122.775
X67.135Y-125.315
X67.135Y-128.855
X67.135Y-131.395
X67.135Y-134.935
X67.135Y-137.475
X67.18Y-98.9
X67.18Y-101.44
X67.18Y-104.86
X67.18Y-107.4
X67.225Y-63.265
X67.225Y-65.805
X67.285Y-57.455
X67.285Y-59.995
X74.72Y-74.81
X74.72Y-77.35
X74.72Y-86.31
X74.72Y-88.85
X74.725Y-69.025
X74.725Y-71.565
X74.725Y-80.595
X74.725Y-83.135
X74.725Y-92.045
X74.725Y-94.585
X74.755Y-110.855
X74.755Y-113.395
X74.755Y-116.935
X74.755Y-119.475
X74.755Y-122.775
X74.755Y-125.315
X74.755Y-128.855
X74.755Y-131.395
X74.755Y-134.935
X74.755Y-137.475
X74.8Y-98.9
X74.8Y-101.44
X74.8Y-104.86
X74.8Y-107.4
X74.845Y-63.265
X74.845Y-65.805
X74.905Y-57.455
X74.905Y-59.995
X77.565Y-134.935
X77.565Y-137.475
X77.665Y-57.395
X77.665Y-59.935
X85.185Y-134.935
X85.185Y-137.475
X85.285Y-57.395
X85.285Y-59.935
X103.71Y-125.8
X107.51Y-125.8
X124.54Y-122.645
X124.54Y-130.265
X124.58Y-111.845
X124.58Y-119.465
X124.61Y-133.445
X124.61Y-141.065
X124.64Y-101.19
X124.64Y-108.81
X127.08Y-122.645
X127.08Y-130.265
X127.12Y-111.845
X127.12Y-119.465
X127.15Y-133.445
X127.15Y-141.065
X127.18Y-101.19
X127.18Y-108.81
X129.62Y-130.265
X129.62Y-122.645
X129.66Y-119.465
X129.66Y-111.845
X129.69Y-141.065
X129.69Y-133.445
X129.72Y-108.81
X129.72Y-101.19
X132.16Y-122.645
X132.16Y-130.265
X132.2Y-111.845
X132.2Y-119.465
X132.23Y-133.445
X132.23Y-141.065
X132.26Y-101.19
X132.26Y-108.81
T4
X105.86Y-165.39
X108.4Y-165.39
X110.94Y-165.39
X113.48Y-165.39
T5
X59.467Y-159.6
X59.467Y-164.6
X59.547Y-140.33
X59.547Y-145.33
X59.57Y-58.1
X59.57Y-63.1
X59.57Y-68.1
X59.57Y-73.1
X59.57Y-78.1
X59.57Y-83.1
X59.57Y-88.1
X59.57Y-93.1
X59.57Y-98.1
X59.57Y-103.1
X59.57Y-108.1
X59.57Y-113.1
X59.57Y-118.1
X59.57Y-123.1
X59.57Y-128.1
X59.57Y-133.1
X140.502Y-139.53
X140.502Y-144.53
X140.502Y-149.53
X140.502Y-154.53
X140.502Y-159.53
X140.502Y-164.53
X140.572Y-58.6
X140.572Y-63.6
X140.572Y-113.41
X140.572Y-118.41
X140.572Y-123.41
X140.572Y-128.41
X140.722Y-71.19
X140.722Y-76.19
X140.722Y-81.19
X140.722Y-86.19
X140.722Y-91.19
X140.722Y-96.19
X140.722Y-101.19
X140.722Y-106.19
T2
G00X89.68Y-159.995
M15
G01X89.68Y-161.095
M16
G05
G00X89.68Y-164.325
M15
G01X89.68Y-165.125
M16
G05
G00X98.32Y-159.995
M15
G01X98.32Y-161.095
M16
G05
G00X98.32Y-164.325
M15
G01X98.32Y-165.125
M16
G05
M30
